<svg viewBox="0 0 14 16" xmlns="http://www.w3.org/2000/svg" xmlns:xlink="http://www.w3.org/1999/xlink"><linearGradient id="a"><stop offset="0" stop-color="#ffeed7"/><stop offset="1" stop-color="#bdbfc2"/></linearGradient><linearGradient id="b" x1="48.547741%" x2="51.04738%" xlink:href="#a" y1="115.276174%" y2="41.363724%"/><linearGradient id="c"><stop offset="0" stop-color="#fff" stop-opacity=".8"/><stop offset="1" stop-color="#fff" stop-opacity="0"/></linearGradient><linearGradient id="d" x1="54.406546%" x2="46.175396%" xlink:href="#c" y1="2.404105%" y2="90.542235%"/><linearGradient id="e" x1="51.859653%" x2="47.94694%" xlink:href="#a" y1="88.247748%" y2="9.747821%"/><linearGradient id="f" x1="49.92511%" x2="49.923684%" xlink:href="#a" y1="85.490017%" y2="13.810927%"/><linearGradient id="g"><stop offset="0" stop-color="#fff" stop-opacity=".65"/><stop offset="1" stop-color="#fff" stop-opacity="0"/></linearGradient><linearGradient id="h" x1="53.901407%" x2="45.955535%" xlink:href="#g" y1="3.101776%" y2="93.894957%"/><linearGradient id="i" x1="45.592876%" x2="54.811359%" xlink:href="#g" y1="5.474591%" y2="93.523516%"/><linearGradient id="j" x1="49.984499%" x2="49.984499%" xlink:href="#a" y1="89.845244%" y2="40.631686%"/><linearGradient id="k" x1="53.504713%" x2="42.745597%" xlink:href="#a" y1="99.97524%" y2="23.545172%"/><linearGradient id="l" x1="49.841336%" x2="50.241261%" xlink:href="#c" y1="13.228956%" y2="94.672969%"/><linearGradient id="m" x1="49.92723%" x2="50.727045%" xlink:href="#g" y1="37.327034%" y2="92.782474%"/><linearGradient id="n" x1="49.87556%" x2="49.87556%" xlink:href="#g" y1="2.299006%" y2="81.203617%"/><linearGradient id="o" x1="49.833439%" x2="49.82404%" xlink:href="#g" y1="2.271891%" y2="71.798962%"/><linearGradient id="p"><stop offset="0" stop-color="#ffa63f"/><stop offset="1" stop-color="#ff0"/></linearGradient><linearGradient id="q" x1="53.467068%" x2="38.948871%" xlink:href="#p" y1="48.921386%" y2="98.099978%"/><linearGradient id="r" x1="52.373151%" x2="47.57909%" xlink:href="#a" y1="143.008909%" y2="-64.621539%"/><linearGradient id="s" x1="30.580815%" x2="65.886702%" xlink:href="#p" y1="34.024108%" y2="89.175349%"/><linearGradient id="t" x1="59.571509%" x2="48.360852%" xlink:href="#g" y1="-17.215521%" y2="66.118447%"/><linearGradient id="u" x1="47.768955%" x2="51.373303%" xlink:href="#g" y1="1.564813%" y2="104.312856%"/><linearGradient id="v" x1="43.549563%" x2="57.114329%" xlink:href="#g" y1="4.533486%" y2="92.826717%"/><linearGradient id="w" x1="49.732804%" x2="50.558249%" xlink:href="#p" y1="17.608522%" y2="99.385467%"/><linearGradient id="x" x1="50.169722%" x2="49.680236%" xlink:href="#g" y1="2.890485%" y2="94.170428%"/><g fill="none" fill-rule="evenodd"><path d="m13.3879244 14.198356c0 .9882217-2.9960369 1.7934393-6.69271774 1.7934393-3.69668086 0-6.69271781-.799989-6.69271781-1.7934393 0-.9882216 2.99603695-1.7934392 6.69271781-1.7934392 3.69668084 0 6.68748904.8052176 6.69271774 1.7934392z" fill="#000" fill-opacity=".2"/><path d="m3.02989791 12.268971c-.64835703-.9307061-.77384549-3.96334378.73724469-5.82998458.74770207-.89410529.94116344-1.5163189.99867899-2.35813731.04182948-.95684949-.67450047-3.80648324 2.0235014-4.02085935 2.73460265-.21960481 2.58297076 2.47839705 2.56728473 3.90582827-.0104574 1.20259772.88364788 1.88755558 1.50063278 2.82871897 1.1346248 1.7254663 1.0405085 4.6953598-.2143761 6.3057951-1.58952046 2.013044-2.94897879 1.1398535-3.85354141 1.2130551-1.6940942.099345-1.75160974.998679-3.75942508-2.0444162z" fill="#000"/><path d="m9.62849936 6.97231231c.47058174.43398093 1.68886544 2.37382338-.24051957 3.58687849-.67972914.4235235.60652754 2.0339588 1.22351251 1.2548846 1.0927953-1.4012878.3973801-3.63916534-.2614343-4.43915423-.4392096-.56469808-1.11893874-.78430286-.72155864-.40260886z" fill="url(#b)"/><path d="m9.49778221 6.71087806c.77384549.62744228 2.18036199 2.82349028.12548845 4.25615024-.67450044.4444382.59607024 1.8509547 1.31240014 1.1346248 2.4836257-2.4993118-.0627442-5.3698603-.94116347-6.35808191-.78430286-.86273315-1.47971803.19869005-.49672512.96730687z" fill="#000" stroke="#000" stroke-width=".5"/><path d="m8.38407214 1.42467674c-.02614343.71632995-.81567499 1.33854356-1.76206713 1.3960591-.9463921.05751555-1.68886548-.48626777-1.66272205-1.20259772s.81567499-1.33854356 1.76206713-1.3960591c.94639209-.05228686 1.68886548.48626777 1.66272205 1.20259772z" fill="url(#d)"/><path d="m6.12005119 3.1292283c.02614343.46535304-.19346135.85750447-.49672514.87319052-.30326377.01568606-.56992674-.34509326-.59607018-.81044629-.02614342-.46535303.19346138-.85750446.49672515-.87319052.30326379-.01568606.56992674.34509326.59607017.81044629z" fill="url(#e)"/><path d="m6.66906323 3.1658291c.01045734.53855464.36077928.96730687.77907417.9568495.41829483-.01045737.74770203-.45489566.73724469-.99867898-.01045739-.53855464-.36077933-.96730687-.77907422-.9568495-.41829483.01045737-.75293073.46012435-.73724464.99867898z" fill="url(#f)"/><path d="m7.01415647 3.28608888c-.0052287.29803508.14117449.53855463.3346359.53855463.18823265 0 .35032194-.24051955.35555063-.53332595.0052287-.29803509-.14117454-.53855463-.3346359-.53855463-.19346135 0-.35032193.24051954-.35555063.53332595z" fill="#000"/><path d="m5.80633008 3.29131756c.02614343.24574823-.06797296.45489566-.20391877.47581041-.13594583.01568605-.26666297-.16731795-.2928064-.41306618s.06797291-.45489566.20391874-.4758104c.13594583-.01568606.266663.16731794.29280643.41306617z" fill="#000"/><path d="m7.09258676 3.11877093c-.01568609.16731795.0627442.30326377.17254662.31372115.10980242.01045737.21437614-.12025978.23006218-.28234904.01568603-.16731794-.06274426-.30326377-.17254662-.31372114-.10980242-.01045737-.21437614.12025977-.23006218.28234903z" fill="url(#h)"/><path d="m5.69129897 3.16060042c.01568608.13594583-.04182949.2562056-.12548846.26666297s-.16208926-.09411634-.17777532-.23529086c-.01568605-.13594583.04182949-.2562056.12548846-.26666297s.16208926.09934503.17777532.23529086z" fill="url(#i)"/><path d="m4.04426295 8.29516982c.37123669-.84181836 1.16076824-2.32153645 1.1764543-3.46661865 0-.90979132 2.72414527-1.12939612 2.94375011-.2196048.21960478.90979133.77384547 2.26924962 1.1293961 2.92806402.35555063.65358571 1.38560174 2.73983131.28757774 4.55941401-.98822161 1.6104352-3.98425858 2.8862346-5.58423642-.2196048-.54378332-1.0771093-.44443829-2.41042416.04705817-3.58164978z" fill="url(#j)"/><path d="m3.70962706 7.66772754c-.31894983.60129885-.97776423 2.18036197.63267098 3.04309516 1.73069498.9202487 1.72546629 2.8078042-.35555063 1.9084703-1.90324162-.8104463-1.06142321-4.094061-.52809726-4.87836386.34509326-.54901199.86796184-1.22351249.25097691-.0732016z" fill="url(#k)"/><path d="m3.98151872 6.98799841c-.50718252.82613232-1.72023762 2.77120347-.09411634 3.78556849 2.18559064 1.3437723 1.56860573 2.6823158-.42875223 1.4744894-2.81303295-1.6836368-.33986458-5.08228258.78430286-6.37899666 1.2862567-1.45357464.24574823.26666295-.26143429 1.11893877z" fill="#000" stroke="#000" stroke-width=".5"/><path d="m8.9069407 8.61411969c0 .92024865-.88364789 2.11238901-2.39996675 2.10193171-1.56337705.0104573-2.22742014-1.18168306-2.22742014-2.10193171 0-.92024871 1.03527978-1.66795075 2.31107913-1.66795075 1.28102799.00522864 2.31630776.74770204 2.31630776 1.66795075z" fill="url(#l)"/><path d="m8.08080837 5.72265646c-.01568604.95162078-.63789967 1.17645426-1.42220253 1.17645426s-1.35422962-.14117449-1.42220253-1.17645426c0-.64835706.63789967-1.02482243 1.42220253-1.02482243.78430286-.00522868 1.42220253.37123669 1.42220253 1.02482243z" fill="url(#m)"/><path d="m3.33839037 7.18668846c.51241121-.77907417 1.59474916-1.97644322.20391875.16731792-1.12939613 1.76729583-.41829486 2.90192062-.05228686 3.21564182 1.05619453.9411634 1.01436504 1.5738344.183004 1.0771092-1.78298184-1.0614232-1.41174516-2.8496337-.33463589-4.46006894z" fill="url(#n)"/><path d="m10.7578955 7.50563826c-.4444383-.91501995-1.85618344-3.23655646.0679729-.53855459 1.7516097 2.44179622.5228686 4.14111913.3032638 4.30843703-.2196049.167318-.9568496.5071826-.7424734-.0836589.2196048-.5908416 1.3071714-1.70978032.3712367-3.68622354z" fill="url(#o)"/><path d="m2.95146763 14.7212247c-1.17122561-.6222137-2.87054849.1202597-2.25356357-1.5633771.12548846-.381694-.183004-.9568495.01568606-1.3280862.23529086-.4548956.74247338-.3555506 1.04573715-.6588144.29803509-.3137211.48626778-.8575044 1.04573716-.7738455.55424069.083659.92547738.7633881 1.31240012 1.5999778.28757772.5960703 1.30194276 1.4378887 1.23396984 2.1071604-.08365897 1.0248224-1.2496559 1.2182838-2.39996676.616985z" fill="url(#q)" stroke="#e68c3f" stroke-width=".5"/><path d="m11.4794541 10.7683382c-.1777753.3346359-.9202487.8731905-1.4169738.732016-.50195384-.1359458-.73201602-.899334-.63267099-1.4797181.09411633-.64835698.63267099-.68495781 1.31240009-.3607793.732016.3607793.9516208.6640431.7372447 1.1084814z" fill="url(#r)"/><path d="m11.0716166 14.4336469c.8575045-1.0405085 2.7659748-.8261323 1.4797181-2.2535635-.2718917-.3084925-.1882327-.9673069-.5228686-1.249656-.3921514-.3450932-.8261323-.0627442-1.2235125-.2405195-.3973801-.1934614-.81567491-.564698-1.3019427-.3032637-.48626778.2666629-.53855464.9568494-.58561281 1.8666408-.04182946.6535857-.63789967 1.746381-.31894986 2.3476799.46012435.930706 1.65749337.8052176 2.47316837-.167318z" fill="url(#s)" stroke="#e68c3f" stroke-width=".5"/><path d="m10.70038 13.0428165c1.3280861-1.9607572.3398645-1.9450711.0052286-2.096703-.3346358-.1568605-.6849578-.465353-1.07710924-.2509769-.39215146.2196048-.41306619.7843029-.42352353 1.5267762-.01568609.533326-.46012436 1.4274313-.19346141 1.9241564.32417851.5803842 1.10848138-.2614343 1.68886558-1.1032527z" fill="url(#t)"/><path d="m2.67957597 13.3251656c-1.98690059-1.2862567-1.05619453-1.7254664-.75815944-1.9293851.36077932-.2614343.36600801-.7633881.8104463-.71633.44443828.0470582.70587257.5960702 1.00390766 1.2757994.2196048.4862678.98299293 1.1346248.92547738 1.6940942-.0732016.6588144-1.12416744.2248334-1.9816719-.3241785z" fill="url(#u)"/><path d="m11.364423 10.7526521c-.1568605.2718917-.7947602.700644-1.2182838.5856128-.43398085-.1098023-.63267096-.7215586-.54378327-1.1816829.07843029-.52286858.54378327-.54901201 1.12939607-.28757776.6222137.28234906.815675.52286866.632671.88364786z" fill="#000"/><path d="m10.9356708 10.6010202c-.099345.1882328-.5176399.4862678-.8104463.4078375-.29280639-.0784303-.43920958-.5019538-.39215142-.8209036.04182947-.36077932.35555062-.38169406.75293072-.20391874.4287522.19869004.5646981.36600794.449667.61698484z" fill="url(#v)"/><path d="m5.52920971 3.77758534c.20914741-.19346138.71632993-.78430287 1.67840811-.16731795.17777532.11503109.32417856.12548846.66404311.27189166.68495783.28234903.36077933.96207818-.37123667 1.19214035-.31372117.09934504-.59607021.4810391-1.16076823.4444383-.48626779-.02614343-.61175624-.34509326-.90979135-.5176399-.52809726-.29803508-.60652755-.70064388-.31894983-.91502s.39738012-.2928064.41829486-.30849246z" fill="url(#w)" stroke="#e68c3f" stroke-width=".5"/><path d="m7.88211832 4.32659734c-.28757774.01568606-.90979132.63789967-1.56337708.63789967-.6535857 0-1.04573713-.60652755-1.14508217-.60652755" stroke="#e68c3f" stroke-width=".5"/><path d="m5.85338824 3.72529848c.10457372-.09411634.43398093-.35032194.86796185-.08888766.09411633.05228686.18823266.1098024.32417851.18823269.27712034.16208926.14117449.39738012-.19346141.54378332-.15163189.06274423-.4026088.19869006-.59084145.18823269-.20914745-.02091475-.350322-.15686058-.48626779-.24574823-.25620561-.16731795-.24051956-.30849247-.12025978-.41829486.08888765-.08365898.18823268-.16208927.19869007-.16731795z" fill="url(#x)"/></g></svg>